<?xml version="1.0" standalone="no"?>
<!DOCTYPE svg PUBLIC "-//W3C//DTD SVG 20010904//EN"
 "http://www.w3.org/TR/2001/REC-SVG-20010904/DTD/svg10.dtd">
<svg version="1.0" xmlns="http://www.w3.org/2000/svg"
 width="900.000000pt" height="322.000000pt" viewBox="0 0 900.000000 322.000000"
 preserveAspectRatio="xMidYMid meet">

<g transform="translate(0.000000,322.000000) scale(0.100000,-0.100000)"
fill="#000000" stroke="none">
<path d="M656 2664 c-153 -78 -287 -238 -358 -425 -28 -73 -32 -97 -32 -184
-1 -87 2 -107 24 -150 44 -90 146 -173 218 -178 37 -3 41 30 8 81 -83 133 -74
359 24 558 37 76 120 184 141 184 12 0 11 -1192 0 -1360 -5 -72 -19 -162 -32
-212 -28 -103 -23 -117 35 -98 52 17 128 90 164 158 66 124 65 114 69 884 l4
696 -33 25 c-72 53 -155 61 -232 21z"/>
<path d="M3022 2673 c-6 -11 -14 -88 -18 -171 l-7 -151 -121 2 -120 2 -15 -29
c-21 -44 -26 -109 -9 -124 9 -7 61 -12 134 -14 l119 -3 -4 -280 c-4 -304 -9
-332 -69 -430 -31 -50 -91 -125 -100 -125 -4 0 -5 22 -4 50 8 114 -46 193
-229 331 -66 49 -119 92 -119 95 0 3 11 20 24 37 43 56 86 154 86 194 0 51
-22 80 -71 93 -105 29 -230 -56 -266 -180 -18 -63 -9 -120 29 -173 l22 -31
-43 -80 c-139 -259 -241 -406 -282 -406 -37 0 -44 36 -44 240 0 107 2 264 4
348 l4 153 -33 34 c-47 49 -141 88 -190 80 -120 -20 -215 -150 -320 -435 -23
-63 -44 -117 -47 -120 -2 -3 -4 105 -3 240 1 135 1 251 1 258 -1 16 -72 48
-129 57 -76 12 -72 40 -72 -484 0 -288 4 -480 10 -503 16 -57 50 -78 126 -78
73 0 78 4 88 90 11 92 74 318 121 436 56 140 122 258 180 321 l44 48 0 -80 c0
-44 -4 -165 -8 -270 -14 -317 12 -483 83 -526 83 -51 193 -2 303 136 26 33
101 149 166 258 65 108 120 197 124 197 14 0 156 -138 183 -178 60 -90 64
-185 10 -242 -43 -46 -99 -43 -178 10 -33 22 -71 40 -84 40 -40 0 -98 -79 -98
-134 0 -57 128 -107 280 -109 210 -2 356 97 470 317 l38 72 16 -85 c29 -147
83 -238 168 -282 46 -23 118 -25 164 -3 54 26 119 99 163 183 22 42 41 69 41
61 0 -27 57 -136 91 -175 118 -134 342 -105 456 60 21 30 40 54 43 55 3 0 11
-20 18 -44 32 -123 180 -191 297 -137 41 18 98 75 117 117 11 24 28 33 28 15
0 -5 23 -34 50 -65 65 -70 115 -91 207 -84 86 6 153 39 216 107 l47 50 0 -53
0 -53 -136 -124 c-157 -144 -244 -242 -282 -319 -23 -46 -27 -68 -27 -136 0
-72 3 -86 30 -130 25 -39 44 -56 99 -84 62 -31 77 -35 150 -35 68 0 90 4 137
28 107 52 180 161 215 322 14 61 18 135 20 307 l3 226 51 64 c118 146 254 382
325 564 l27 71 80 6 c44 4 84 5 88 2 4 -2 -1 -44 -12 -92 -28 -127 -35 -367
-14 -456 29 -123 81 -198 168 -241 64 -32 133 -34 187 -7 36 19 96 77 120 117
11 18 11 18 22 1 113 -189 374 -179 505 18 l37 55 17 -51 c35 -102 130 -166
235 -157 67 6 117 42 156 112 l26 47 9 -63 c8 -59 11 -64 44 -80 43 -22 157
-24 185 -4 17 12 20 33 27 179 8 178 27 286 80 437 31 87 73 170 87 170 4 0
11 -64 15 -142 12 -254 39 -446 71 -509 22 -41 71 -69 123 -69 71 0 79 9 86
97 10 110 32 244 56 338 21 85 99 295 109 295 3 0 4 -58 3 -130 -4 -146 12
-370 32 -445 40 -150 130 -235 252 -235 58 0 99 23 146 80 71 89 106 310 48
310 -26 0 -45 -32 -60 -100 -32 -140 -95 -189 -154 -120 -53 64 -70 218 -61
553 l7 237 -35 34 c-46 43 -161 82 -199 67 -15 -6 -34 -21 -42 -33 -44 -67
-166 -461 -166 -535 0 -18 -3 -24 -10 -17 -5 5 -14 117 -18 248 -8 213 -11
240 -29 264 -41 56 -142 93 -196 73 -35 -14 -67 -78 -133 -270 -29 -84 -55
-156 -58 -158 -3 -3 -4 76 -2 176 2 116 -1 190 -8 203 -20 39 -176 69 -196 38
-6 -9 -10 -156 -10 -335 0 -234 -4 -333 -14 -370 -34 -128 -95 -215 -151 -215
-24 0 -39 7 -54 26 -40 50 -46 118 -46 493 l0 355 -31 18 c-17 10 -58 21 -91
24 -57 6 -62 5 -77 -18 -9 -14 -14 -33 -10 -42 10 -26 -4 -19 -37 18 -69 79
-196 103 -292 57 -93 -45 -177 -172 -218 -328 -26 -102 -35 -276 -20 -381 11
-76 11 -84 -10 -132 -40 -93 -113 -119 -163 -59 -73 86 -82 292 -26 562 l35
168 -20 37 c-31 58 -70 66 -202 42 -60 -11 -118 -22 -130 -25 -22 -5 -23 -2
-23 49 0 69 -6 83 -41 101 -101 53 -213 -30 -214 -156 0 -50 4 -62 33 -98 l33
-41 -31 -92 c-46 -140 -171 -383 -222 -433 -7 -7 -9 109 -7 360 l4 370 -37 18
c-21 10 -61 21 -91 24 -61 6 -87 -10 -87 -55 0 -26 0 -26 -42 15 -61 58 -102
76 -173 77 -76 0 -137 -27 -194 -85 -49 -51 -114 -177 -136 -264 -23 -90 -35
-260 -26 -355 9 -89 6 -112 -28 -177 -45 -90 -122 -100 -161 -22 -31 60 -42
205 -38 528 l3 296 -37 18 c-57 28 -134 34 -158 12 -11 -10 -20 -29 -20 -42 0
-23 -1 -22 -30 11 -70 79 -197 104 -293 57 -132 -64 -229 -260 -243 -491 -7
-123 -20 -181 -57 -258 -49 -101 -125 -167 -172 -149 -24 10 -54 81 -66 159
-12 73 -6 583 8 726 l6 62 126 0 c69 0 136 3 149 6 29 8 52 52 52 98 0 42 -1
42 -195 54 l-130 7 4 146 3 147 -58 22 c-33 12 -82 24 -110 27 -45 5 -53 3
-62 -14z m985 -708 c54 -35 83 -139 83 -296 0 -242 -62 -412 -168 -456 -30
-12 -37 -12 -70 4 -20 10 -45 33 -55 50 -90 157 -64 560 43 672 49 50 114 60
167 26z m1025 -12 c42 -40 59 -104 65 -238 8 -196 -30 -369 -102 -453 -84 -98
-179 -66 -222 76 -25 80 -25 317 0 423 44 187 167 278 259 192z m1746 11 c13
-9 36 -41 50 -72 26 -55 27 -63 27 -237 -1 -168 -3 -185 -28 -260 -33 -100
-74 -158 -127 -179 -113 -45 -181 77 -181 325 0 142 12 235 41 312 44 116 137
164 218 111z m-1672 -1340 c-28 -162 -81 -234 -173 -234 -33 0 -50 7 -75 29
-31 28 -33 33 -33 98 1 56 6 78 32 128 47 89 63 110 165 220 l93 100 3 -129
c2 -79 -3 -161 -12 -212z"/>
</g>
</svg>
